<svg xmlns="http://www.w3.org/2000/svg" version="1.1" xmlns:xlink="http://www.w3.org/1999/xlink" xmlns:svgjs="http://svgjs.dev/svgjs" width="250" height="100" viewBox="0 0 2000 308"><g transform="matrix(1,0,0,1,-1.2121212121212466,29.062775712275993)"><svg viewBox="0 0 396 61" data-background-color="#ffffff" preserveAspectRatio="xMidYMid meet" height="308" width="2000" xmlns="http://www.w3.org/2000/svg" xmlns:xlink="http://www.w3.org/1999/xlink"><g id="tight-bounds" transform="matrix(1,0,0,1,0.2400000000000091,0.09810070000781934)"><svg viewBox="0 0 395.52 60.803798599984376" height="60.803798599984376" width="395.52"><g><svg viewBox="0 0 609.312391426261 93.67037806623489" height="60.803798599984376" width="395.52"><g transform="matrix(1,0,0,1,213.79239142626102,0)"><svg viewBox="0 0 395.52 93.67037806623489" height="93.67037806623489" width="395.52"><g id="textblocktransform"><svg viewBox="0 0 395.52 93.67037806623489" height="93.67037806623489" width="395.52" id="textblock"><g><svg viewBox="0 0 395.52 46.23241086032058" height="46.23241086032058" width="395.52"><g transform="matrix(1,0,0,1,0,0)"><svg width="395.52" viewBox="2.05 -38.57 447.77 52.34" height="46.23241086032058" data-palette-color="#ffffff"><path d="M40.67-17.63L40.67-17.63Q40.67-13.38 39.21-9.97 37.74-6.57 35.16-4.2 32.57-1.83 29.03-0.56 25.49 0.71 21.36 0.71L21.36 0.71Q17.24 0.71 13.7-0.56 10.16-1.83 7.57-4.2 4.98-6.57 3.52-9.97 2.05-13.38 2.05-17.63L2.05-17.63Q2.05-21.95 3.5-25.35 4.96-28.76 7.53-31.12 10.11-33.47 13.65-34.73 17.19-35.99 21.36-35.99L21.36-35.99Q25.54-35.99 29.08-34.73 32.62-33.47 35.19-31.12 37.77-28.76 39.22-25.35 40.67-21.95 40.67-17.63ZM30.81-17.63L30.81-17.63Q30.81-19.24 30.66-20.92 30.52-22.61 30.13-24.19 29.74-25.78 29.06-27.17 28.39-28.56 27.34-29.6 26.29-30.64 24.82-31.24 23.34-31.84 21.36-31.84L21.36-31.84Q19.36-31.84 17.87-31.24 16.38-30.64 15.33-29.61 14.28-28.59 13.62-27.2 12.96-25.81 12.59-24.23 12.21-22.66 12.06-20.96 11.91-19.26 11.91-17.63L11.91-17.63Q11.91-16.02 12.06-14.33 12.21-12.65 12.6-11.07 12.99-9.5 13.66-8.11 14.33-6.71 15.38-5.68 16.43-4.64 17.91-4.03 19.38-3.42 21.36-3.42L21.36-3.42Q23.29-3.42 24.73-4.04 26.17-4.66 27.22-5.73 28.27-6.79 28.97-8.19 29.66-9.59 30.07-11.17 30.47-12.74 30.64-14.4 30.81-16.06 30.81-17.63ZM74.34-38.57L74.34 0 71.16 0 67.5-6.13Q66.97-4.59 66.03-3.34 65.09-2.1 63.85-1.21 62.62-0.32 61.14 0.17 59.67 0.66 58.03 0.66L58.03 0.66Q54.81 0.66 52.27-0.49 49.73-1.64 47.97-3.63 46.21-5.62 45.29-8.3 44.36-10.99 44.36-14.06L44.36-14.06Q44.36-17.14 45.29-19.82 46.21-22.51 47.97-24.49 49.73-26.46 52.27-27.61 54.81-28.76 58.03-28.76L58.03-28.76Q60.5-28.76 62.56-27.81 64.62-26.86 66.09-24.83L66.09-24.83 66.09-38.57 74.34-38.57ZM66.04-14.06L66.04-14.06Q66.04-15.04 65.89-16.21 65.74-17.38 65.43-18.58 65.11-19.78 64.6-20.9 64.08-22.02 63.34-22.9 62.6-23.78 61.61-24.3 60.62-24.83 59.35-24.83L59.35-24.83Q57.96-24.83 56.93-24.33 55.91-23.83 55.17-22.99 54.44-22.14 53.96-21.04 53.49-19.95 53.22-18.75 52.95-17.55 52.84-16.35 52.73-15.14 52.73-14.06L52.73-14.06Q52.73-12.99 52.84-11.78 52.95-10.57 53.22-9.38 53.49-8.18 53.96-7.07 54.44-5.96 55.17-5.11 55.91-4.27 56.93-3.77 57.96-3.27 59.35-3.27L59.35-3.27Q60.74-3.27 61.79-3.76 62.84-4.25 63.58-5.09 64.33-5.93 64.8-7.02 65.28-8.11 65.55-9.31 65.82-10.52 65.93-11.74 66.04-12.96 66.04-14.06ZM100.75-28.2L106.46-28.2 96.21-3.39Q94.45 0.85 92.29 5.02 90.13 9.18 87.62 13.01L87.62 13.01 84.39 11.06Q85 9.96 85.83 8.52 86.66 7.08 87.47 5.54 88.28 4 88.96 2.5 89.64 1 90.01-0.24L90.01-0.24 77.68-28.2 85.93-28.2 94.31-9.13 100.75-28.2ZM133.98-9.01L133.98-9.01Q133.98-7.15 133.44-5.71 132.9-4.27 131.97-3.21 131.05-2.15 129.78-1.43 128.51-0.71 127.06-0.27 125.6 0.17 124.02 0.37 122.43 0.56 120.87 0.56L120.87 0.56Q118.77 0.56 117.16 0.29 115.54 0.02 114.08-0.57 112.61-1.17 111.16-2.12 109.71-3.08 107.93-4.44L107.93-4.44 112.74-8.37Q113.4-7.13 114.48-6.12 115.57-5.1 116.74-4.37 117.91-3.64 119.01-3.25 120.11-2.86 120.79-2.86L120.79-2.86Q121.35-2.86 122.06-2.89 122.77-2.93 123.5-3.04 124.24-3.15 124.94-3.37 125.65-3.59 126.2-3.97 126.75-4.35 127.08-4.92 127.41-5.49 127.41-6.3L127.41-6.3Q127.41-7.13 126.98-7.75 126.56-8.37 125.87-8.84 125.19-9.3 124.31-9.62 123.43-9.94 122.54-10.18 121.65-10.42 120.82-10.61 119.99-10.79 119.38-10.96L119.38-10.96Q118.25-11.28 117.01-11.61 115.76-11.94 114.54-12.37 113.32-12.79 112.21-13.38 111.1-13.96 110.26-14.78 109.42-15.6 108.92-16.71 108.42-17.82 108.42-19.31L108.42-19.31Q108.42-22.05 109.5-23.89 110.59-25.73 112.37-26.84 114.15-27.95 116.42-28.42 118.69-28.88 121.04-28.88L121.04-28.88Q122.65-28.88 124.43-28.55 126.21-28.22 127.9-27.58 129.58-26.93 131.05-26 132.51-25.07 133.49-23.88L133.49-23.88 128.68-19.92Q128.14-21.39 127.28-22.44 126.41-23.49 125.4-24.16 124.38-24.83 123.32-25.15 122.26-25.46 121.35-25.46L121.35-25.46Q120.48-25.46 119.38-25.39 118.28-25.32 117.31-24.98 116.35-24.63 115.68-23.94 115.01-23.24 115.01-22.02L115.01-22.02Q115.01-21.14 115.41-20.52 115.81-19.9 116.47-19.45 117.13-18.99 117.97-18.69 118.82-18.38 119.69-18.15 120.57-17.92 121.4-17.75 122.23-17.58 122.89-17.38L122.89-17.38Q124.02-17.07 125.27-16.74 126.53-16.41 127.75-15.98 128.97-15.55 130.11-14.98 131.24-14.4 132.1-13.57 132.95-12.74 133.46-11.63 133.98-10.52 133.98-9.01ZM163.44-9.01L163.44-9.01Q163.44-7.15 162.91-5.71 162.37-4.27 161.44-3.21 160.51-2.15 159.24-1.43 157.97-0.71 156.52-0.27 155.07 0.17 153.48 0.37 151.89 0.56 150.33 0.56L150.33 0.56Q148.23 0.56 146.62 0.29 145.01 0.02 143.54-0.57 142.08-1.17 140.63-2.12 139.17-3.08 137.39-4.44L137.39-4.44 142.2-8.37Q142.86-7.13 143.95-6.12 145.03-5.1 146.21-4.37 147.38-3.64 148.48-3.25 149.57-2.86 150.26-2.86L150.26-2.86Q150.82-2.86 151.53-2.89 152.24-2.93 152.97-3.04 153.7-3.15 154.41-3.37 155.12-3.59 155.67-3.97 156.22-4.35 156.55-4.92 156.87-5.49 156.87-6.3L156.87-6.3Q156.87-7.13 156.45-7.75 156.02-8.37 155.34-8.84 154.65-9.3 153.77-9.62 152.9-9.94 152-10.18 151.11-10.42 150.28-10.61 149.45-10.79 148.84-10.96L148.84-10.96Q147.72-11.28 146.47-11.61 145.23-11.94 144.01-12.37 142.79-12.79 141.68-13.38 140.57-13.96 139.72-14.78 138.88-15.6 138.38-16.71 137.88-17.82 137.88-19.31L137.88-19.31Q137.88-22.05 138.97-23.89 140.05-25.73 141.84-26.84 143.62-27.95 145.89-28.42 148.16-28.88 150.5-28.88L150.5-28.88Q152.11-28.88 153.9-28.55 155.68-28.22 157.36-27.58 159.05-26.93 160.51-26 161.98-25.07 162.95-23.88L162.95-23.88 158.14-19.92Q157.61-21.39 156.74-22.44 155.87-23.49 154.86-24.16 153.85-24.83 152.79-25.15 151.72-25.46 150.82-25.46L150.82-25.46Q149.94-25.46 148.84-25.39 147.74-25.32 146.78-24.98 145.82-24.63 145.14-23.94 144.47-23.24 144.47-22.02L144.47-22.02Q144.47-21.14 144.88-20.52 145.28-19.9 145.94-19.45 146.6-18.99 147.44-18.69 148.28-18.38 149.16-18.15 150.04-17.92 150.87-17.75 151.7-17.58 152.36-17.38L152.36-17.38Q153.48-17.07 154.74-16.74 156-16.41 157.22-15.98 158.44-15.55 159.57-14.98 160.71-14.4 161.56-13.57 162.42-12.74 162.93-11.63 163.44-10.52 163.44-9.01ZM175.43-13.38L175.43-13.38Q176.94-13.04 178.45-12.84 179.97-12.65 181.51-12.65L181.51-12.65Q183.12-12.65 184.5-12.95 185.88-13.26 186.89-13.98 187.9-14.7 188.49-15.89 189.07-17.09 189.07-18.87L189.07-18.87Q189.07-20.31 188.68-21.51 188.29-22.71 187.52-23.56 186.76-24.41 185.63-24.89 184.51-25.37 183.02-25.37L183.02-25.37Q181.63-25.37 180.52-24.85 179.41-24.34 178.56-23.47 177.72-22.61 177.12-21.46 176.53-20.31 176.13-19.07 175.74-17.82 175.57-16.55 175.4-15.28 175.4-14.16L175.4-14.16Q175.4-13.96 175.4-13.77 175.4-13.57 175.43-13.38ZM195.76-18.95L195.76-18.95Q195.76-17.21 195.2-15.86 194.64-14.5 193.68-13.48 192.71-12.45 191.44-11.74 190.17-11.04 188.73-10.58 187.29-10.13 185.77-9.94 184.24-9.74 182.8-9.74L182.8-9.74Q180.97-9.74 179.19-10 177.4-10.25 175.67-10.82L175.67-10.82Q175.94-9.2 176.53-7.75 177.11-6.3 178.09-5.21 179.06-4.13 180.49-3.49 181.92-2.86 183.87-2.86L183.87-2.86Q185.17-2.86 186.34-3.25 187.51-3.64 188.49-4.35 189.47-5.05 190.21-6.03 190.95-7.01 191.42-8.2L191.42-8.2 194.98-6.88Q194.18-4.96 192.77-3.55 191.37-2.15 189.6-1.23 187.83-0.32 185.84 0.12 183.85 0.56 181.9 0.56L181.9 0.56Q178.67 0.56 175.94-0.52 173.21-1.61 171.23-3.56 169.25-5.52 168.13-8.23 167-10.94 167-14.16L167-14.16Q167-17.38 168.13-20.09 169.25-22.8 171.23-24.76 173.21-26.71 175.94-27.8 178.67-28.88 181.9-28.88L181.9-28.88Q183.46-28.88 185.09-28.66 186.73-28.44 188.27-27.97 189.81-27.49 191.17-26.73 192.54-25.98 193.55-24.87 194.57-23.75 195.17-22.29 195.76-20.83 195.76-18.95ZM220.44-28.2L226.16-28.2 215.9-3.39Q214.15 0.85 211.98 5.02 209.82 9.18 207.31 13.01L207.31 13.01 204.09 11.06Q204.7 9.96 205.53 8.52 206.36 7.08 207.16 5.54 207.97 4 208.65 2.5 209.34 1 209.7-0.24L209.7-0.24 197.37-28.2 205.62-28.2 214-9.13 220.44-28.2ZM254.11-35.16L254.11-11.04Q254.11-7.64 253.24-4.14 252.37-0.63 250.82 2.65 249.27 5.93 247.1 8.79 244.93 11.65 242.31 13.77L242.31 13.77 238.55 11.5Q240.02 9.5 241.12 6.96 242.22 4.42 242.95 1.68 243.68-1.05 244.05-3.81 244.41-6.57 244.41-9.06L244.41-9.06 244.41-35.16 254.11-35.16ZM291.14-14.16L291.14-14.16Q291.14-11.96 290.55-10.03 289.97-8.11 288.93-6.47 287.89-4.83 286.43-3.53 284.96-2.22 283.22-1.32 281.47-0.42 279.48 0.07 277.49 0.56 275.39 0.56L275.39 0.56Q273.29 0.56 271.32 0.07 269.34-0.42 267.59-1.32 265.85-2.22 264.38-3.53 262.92-4.83 261.88-6.47 260.84-8.11 260.26-10.05 259.67-11.99 259.67-14.16L259.67-14.16Q259.67-16.33 260.26-18.27 260.84-20.21 261.88-21.85 262.92-23.49 264.38-24.79 265.85-26.1 267.59-27 269.34-27.91 271.32-28.39 273.29-28.88 275.39-28.88L275.39-28.88Q277.49-28.88 279.48-28.39 281.47-27.91 283.22-27 284.96-26.1 286.43-24.79 287.89-23.49 288.93-21.85 289.97-20.21 290.55-18.27 291.14-16.33 291.14-14.16ZM282.74-14.16L282.74-14.16Q282.74-15.33 282.61-16.64 282.47-17.94 282.16-19.2 281.84-20.46 281.29-21.62 280.74-22.78 279.93-23.65 279.13-24.51 278-25.04 276.88-25.56 275.39-25.56L275.39-25.56Q273.98-25.56 272.88-25.02 271.78-24.49 270.96-23.6 270.14-22.71 269.59-21.53 269.04-20.36 268.7-19.1 268.36-17.85 268.21-16.56 268.07-15.28 268.07-14.16L268.07-14.16Q268.07-13.04 268.21-11.76 268.36-10.47 268.7-9.2 269.04-7.93 269.59-6.77 270.14-5.62 270.96-4.72 271.78-3.83 272.88-3.3 273.98-2.76 275.39-2.76L275.39-2.76Q276.86-2.76 277.98-3.28 279.1-3.81 279.92-4.69 280.74-5.57 281.28-6.71 281.81-7.86 282.14-9.13 282.47-10.4 282.61-11.69 282.74-12.99 282.74-14.16ZM294.9-12.06L294.9-12.06Q294.9-13.99 295.23-16.06 295.56-18.14 296.18-20.21 296.8-22.29 297.68-24.32 298.56-26.34 299.66-28.2L299.66-28.2 305.69-28.2Q305.08-26.37 304.6-24.38 304.13-22.39 303.8-20.4 303.47-18.41 303.28-16.5 303.1-14.6 303.1-12.96L303.1-12.96Q303.1-12.01 303.19-10.93 303.27-9.84 303.49-8.75 303.71-7.67 304.11-6.67 304.52-5.66 305.15-4.9 305.79-4.13 306.7-3.67 307.62-3.22 308.86-3.22L308.86-3.22Q310.08-3.22 311.05-3.77 312.01-4.32 312.74-5.21 313.48-6.1 313.99-7.25 314.5-8.4 314.83-9.61 315.16-10.82 315.32-11.98 315.48-13.13 315.48-14.06L315.48-14.06 315.48-28.2 323.73-28.2 323.73 0 320.56 0 316.77-6.57Q316.06-4.93 315.05-3.6 314.04-2.27 312.74-1.32 311.45-0.37 309.87 0.15 308.3 0.66 306.47 0.66L306.47 0.66Q303.54 0.66 301.37-0.29 299.19-1.25 297.75-2.93 296.31-4.61 295.6-6.95 294.9-9.28 294.9-12.06ZM354.59-25.71L354.59-25.71 349.95-18.02Q349.66-18.99 349.19-20.21 348.73-21.44 348.04-22.5 347.36-23.56 346.41-24.28 345.46-25 344.21-25L344.21-25Q343.06-25 342.22-24.41 341.38-23.83 340.79-22.89 340.21-21.95 339.83-20.76 339.45-19.58 339.24-18.37 339.04-17.16 338.96-16.05 338.89-14.94 338.89-14.14L338.89-14.14 338.89 0 330.61 0 330.61-28.2 333.79-28.2 337.13-21.63Q337.81-23.22 338.69-24.55 339.57-25.88 340.72-26.84 341.87-27.81 343.32-28.34 344.77-28.88 346.6-28.88L346.6-28.88Q347.56-28.88 348.73-28.72 349.9-28.56 351.02-28.19 352.15-27.81 353.1-27.2 354.05-26.59 354.59-25.71ZM386.86-16.16L386.86-16.16Q386.86-13.31 386.16-10.21 385.47-7.1 384.22-4.13 382.98-1.15 381.24 1.48 379.51 4.1 377.44 6.01L377.44 6.01 374.34 4.32Q374.99 3.1 375.58 1.59 376.17 0.07 376.64-1.62 377.12-3.32 377.5-5.13 377.88-6.93 378.13-8.7 378.39-10.47 378.52-12.15 378.66-13.82 378.66-15.26L378.66-15.26Q378.66-16.21 378.58-17.3 378.51-18.38 378.28-19.47 378.05-20.56 377.66-21.56 377.26-22.56 376.62-23.32 375.97-24.07 375.06-24.54 374.14-25 372.89-25L372.89-25Q371.67-25 370.72-24.45 369.77-23.9 369.04-23.01 368.3-22.12 367.78-20.97 367.26-19.82 366.93-18.62 366.6-17.41 366.45-16.24 366.3-15.06 366.3-14.14L366.3-14.14 366.3 0 358.03 0 358.03-28.2 361.2-28.2 364.98-21.63Q365.67-23.27 366.69-24.61 367.72-25.95 369.01-26.9 370.31-27.86 371.88-28.37 373.46-28.88 375.29-28.88L375.29-28.88Q378.22-28.88 380.39-27.93 382.56-26.98 384-25.28 385.44-23.58 386.15-21.25 386.86-18.92 386.86-16.16ZM399.09-13.38L399.09-13.38Q400.6-13.04 402.12-12.84 403.63-12.65 405.17-12.65L405.17-12.65Q406.78-12.65 408.16-12.95 409.54-13.26 410.55-13.98 411.56-14.7 412.15-15.89 412.74-17.09 412.74-18.87L412.74-18.87Q412.74-20.31 412.35-21.51 411.95-22.71 411.19-23.56 410.42-24.41 409.29-24.89 408.17-25.37 406.68-25.37L406.68-25.37Q405.29-25.37 404.18-24.85 403.07-24.34 402.23-23.47 401.38-22.61 400.79-21.46 400.19-20.31 399.8-19.07 399.41-17.82 399.24-16.55 399.06-15.28 399.06-14.16L399.06-14.16Q399.06-13.96 399.06-13.77 399.06-13.57 399.09-13.38ZM419.43-18.95L419.43-18.95Q419.43-17.21 418.86-15.86 418.3-14.5 417.34-13.48 416.37-12.45 415.1-11.74 413.83-11.04 412.39-10.58 410.95-10.13 409.43-9.94 407.9-9.74 406.46-9.74L406.46-9.74Q404.63-9.74 402.85-10 401.07-10.25 399.33-10.82L399.33-10.82Q399.6-9.2 400.19-7.75 400.77-6.3 401.75-5.21 402.73-4.13 404.15-3.49 405.58-2.86 407.54-2.86L407.54-2.86Q408.83-2.86 410-3.25 411.17-3.64 412.15-4.35 413.13-5.05 413.87-6.03 414.62-7.01 415.08-8.2L415.08-8.2 418.64-6.88Q417.84-4.96 416.43-3.55 415.03-2.15 413.26-1.23 411.49-0.32 409.5 0.12 407.51 0.56 405.56 0.56L405.56 0.56Q402.34 0.56 399.6-0.52 396.87-1.61 394.89-3.56 392.91-5.52 391.79-8.23 390.67-10.94 390.67-14.16L390.67-14.16Q390.67-17.38 391.79-20.09 392.91-22.8 394.89-24.76 396.87-26.71 399.6-27.8 402.34-28.88 405.56-28.88L405.56-28.88Q407.12-28.88 408.76-28.66 410.39-28.44 411.93-27.97 413.47-27.49 414.84-26.73 416.2-25.98 417.22-24.87 418.23-23.75 418.83-22.29 419.43-20.83 419.43-18.95ZM444.11-28.2L449.82-28.2 439.56-3.39Q437.81 0.85 435.65 5.02 433.49 9.18 430.97 13.01L430.97 13.01 427.75 11.06Q428.36 9.96 429.19 8.52 430.02 7.08 430.82 5.54 431.63 4 432.31 2.5 433 1 433.36-0.24L433.36-0.24 421.03-28.2 429.29-28.2 437.66-9.13 444.11-28.2Z" opacity="1" transform="matrix(1,0,0,1,0,0)" fill="#ffffff" class="wordmark-text-0" data-fill-palette-color="primary" id="text-0"></path></svg></g></svg></g><g transform="matrix(1,0,0,1,0,57.14677348658162)"><svg viewBox="0 0 107.34221067481432 36.52360457965326" height="36.52360457965326" width="107.34221067481432"><g transform="matrix(1,0,0,1,0,0)"><svg width="107.34221067481432" viewBox="2.8 -34 142.91333333332497 47.8" height="36.52360457965326" data-palette-color="#b95ffe"><path d="M5.9 0.5L5.9 0.5Q4.7 0.5 3.95-0.15 3.2-0.8 3.2-2.8L3.2-2.8Q3.2-3.8 3.4-5.4 3.6-7 3.8-8.6L3.8-8.6Q4.35-12.15 4.6-14.75 4.85-17.35 4.85-20.05L4.85-20.05Q4.85-22.55 4.58-24.7 4.3-26.85 3.2-28.4L3.2-28.4Q2.8-29.05 2.8-29.4L2.8-29.4Q2.8-30 3.48-30.68 4.15-31.35 5.13-31.8 6.1-32.25 6.95-32.25L6.95-32.25Q8.5-32.25 9.03-30.88 9.55-29.5 9.55-27.45L9.55-27.45Q9.55-26.2 9.4-24.35 9.25-22.5 9.08-20.78 8.9-19.05 8.75-18.1L8.75-18.1Q8.4-15.45 8.2-13.15 8-10.85 8-9.25L8-9.25Q8-7.35 8.38-6.05 8.75-4.75 9.7-3.9L9.7-3.9Q10.35-3.3 10.35-2.55L10.35-2.55Q10.35-1.35 9.13-0.43 7.9 0.5 5.9 0.5ZM17.55 0.55L17.55 0.55Q15.75 0.55 15.95-0.65L15.95-0.65Q16.5-2.8 16.87-5.03 17.25-7.25 17.25-9.3L17.25-9.3Q17.25-11.95 16.92-13.18 16.6-14.4 16.05-14.88 15.5-15.35 14.7-15.6L14.7-15.6Q14.35-15.75 14.07-16 13.8-16.25 13.8-16.7L13.8-16.7Q13.8-17.4 14.35-18.25 14.9-19.1 15.92-19.73 16.95-20.35 18.25-20.35L18.25-20.35Q19.95-20.35 20.6-19.18 21.25-18 21.25-16.1L21.25-16.1Q21.25-14.85 21-13.3 20.75-11.75 20.5-10.5L20.5-10.5 20.65-10.45Q21.65-13.1 23.07-15.38 24.5-17.65 26.4-19.05 28.3-20.45 30.8-20.45L30.8-20.45Q33.45-20.45 34.85-18.85 36.25-17.25 36.25-14.85L36.25-14.85Q36.25-13.85 36.02-12.95 35.8-12.05 35.55-11.2L35.55-11.2Q35.3-10.4 35.12-9.55 34.95-8.7 34.95-7.85L34.95-7.85Q34.95-5 37.65-4L37.65-4Q38.35-3.7 38.35-3.1L38.35-3.1Q38.35-2.65 38.05-1.8 37.75-0.95 36.95-0.23 36.15 0.5 34.6 0.5L34.6 0.5Q32.6 0.5 31.5-0.93 30.4-2.35 30.4-4.55L30.4-4.55Q30.4-5.8 30.67-7.08 30.95-8.35 31.25-9.45L31.25-9.45Q31.45-10.3 31.62-11.13 31.8-11.95 31.8-12.6L31.8-12.6Q31.8-14.9 29.4-14.9L29.4-14.9Q27.35-14.9 25.8-13.38 24.25-11.85 23.15-9.55 22.05-7.25 21.35-4.9L21.35-4.9 21.35-3.7Q21.35-1.85 20.32-0.65 19.3 0.55 17.55 0.55ZM44.5 9.6L44.5 9.6Q43.55 9.6 43.05 9.13 42.55 8.65 42.6 7.4L42.6 7.4Q42.6 6.65 42.72 4.73 42.85 2.8 43.07 0.18 43.3-2.45 43.57-5.3 43.85-8.15 44.1-10.8 44.35-13.45 44.55-15.35L44.55-15.35Q44.05-15.3 43.6-15.28 43.15-15.25 42.7-15.15L42.7-15.15Q42.2-15.05 41.95-15.05L41.95-15.05Q41.35-15.05 41.15-15.78 40.95-16.5 40.95-17.15L40.95-17.15Q40.95-17.9 41.17-18.4 41.4-18.9 42.15-19.2L42.15-19.2Q42.6-19.4 43.32-19.55 44.05-19.7 44.85-19.8L44.85-19.8Q45.1-22.75 45.62-25.4 46.15-28.05 47.25-29.9L47.25-29.9Q48.4-31.8 50.37-32.9 52.35-34 54.4-34L54.4-34Q55.9-34 57.22-33.43 58.55-32.85 59.37-31.83 60.2-30.8 60.2-29.5L60.2-29.5Q60.2-28.55 59.72-27.95 59.25-27.35 58.65-27.35L58.65-27.35Q58.4-27.35 58.09-27.45 57.8-27.55 57.5-27.65L57.5-27.65Q56.95-27.9 56.12-28.08 55.3-28.25 54.35-28.25L54.35-28.25Q52.4-28.25 51.27-27.2 50.15-26.15 49.57-24.33 49-22.5 48.65-20.1L48.65-20.1Q49.7-20.2 50.9-20.3 52.1-20.4 52.85-20.4L52.85-20.4Q54.05-20.4 54.72-20.03 55.4-19.65 55.4-18.6L55.4-18.6Q55.4-17.95 55.17-17.07 54.95-16.2 54.5-15.53 54.05-14.85 53.45-14.85L53.45-14.85Q53.2-14.85 52.6-15L52.6-15Q51.95-15.1 50.9-15.25 49.85-15.4 48.25-15.45L48.25-15.45Q48.05-13.3 47.92-10.68 47.8-8.05 47.8-5.15L47.8-5.15Q47.8-2 48 0.3 48.2 2.6 48.4 4.05L48.4 4.05Q48.5 4.7 48.55 5.2 48.6 5.7 48.6 6L48.6 6Q48.6 7.45 47.9 8.22 47.2 9 46.25 9.3 45.3 9.6 44.5 9.6ZM61.04-24.85L61.04-24.85Q59.64-24.9 58.79-25.7 57.94-26.5 57.94-27.95L57.94-27.95Q57.99-29.5 58.99-30.48 59.99-31.45 61.54-31.4L61.54-31.4Q62.99-31.35 63.82-30.55 64.64-29.75 64.59-28.3L64.59-28.3Q64.54-26.8 63.59-25.83 62.64-24.85 61.04-24.85ZM61.09 0.5L61.09 0.5Q59.59 0.5 58.74-0.33 57.89-1.15 57.89-3.15L57.89-3.15Q57.89-4.3 58.12-5.4 58.34-6.5 58.64-7.55L58.64-7.55Q58.99-8.65 59.22-9.8 59.44-10.95 59.44-12.25L59.44-12.25Q59.44-13.15 59.19-13.98 58.94-14.8 58.09-15.2L58.09-15.2Q57.44-15.55 56.97-15.93 56.49-16.3 56.49-16.9L56.49-16.9Q56.49-17.6 57.14-18.4 57.79-19.2 58.87-19.78 59.94-20.35 61.09-20.35L61.09-20.35Q62.34-20.35 62.92-19.7 63.49-19.05 63.69-18.05 63.89-17.05 63.89-16L63.89-16Q63.89-14.4 63.64-12.88 63.39-11.35 63.14-10.05L63.14-10.05Q62.94-9.1 62.84-8.3 62.74-7.5 62.74-6.8L62.74-6.8Q62.74-5.55 63.34-4.93 63.94-4.3 65.04-3.75L65.04-3.75Q65.49-3.5 65.49-3L65.49-3Q65.49-2.6 65.09-1.75 64.69-0.9 63.72-0.2 62.74 0.5 61.09 0.5ZM72.04 0.55L72.04 0.55Q70.24 0.55 70.44-0.65L70.44-0.65Q70.99-2.8 71.37-5.03 71.74-7.25 71.74-9.3L71.74-9.3Q71.74-11.95 71.42-13.18 71.09-14.4 70.54-14.88 69.99-15.35 69.19-15.6L69.19-15.6Q68.84-15.75 68.57-16 68.29-16.25 68.29-16.7L68.29-16.7Q68.29-17.4 68.84-18.25 69.39-19.1 70.42-19.73 71.44-20.35 72.74-20.35L72.74-20.35Q74.44-20.35 75.09-19.18 75.74-18 75.74-16.1L75.74-16.1Q75.74-14.85 75.49-13.3 75.24-11.75 74.99-10.5L74.99-10.5 75.14-10.45Q76.14-13.1 77.57-15.38 78.99-17.65 80.89-19.05 82.79-20.45 85.29-20.45L85.29-20.45Q87.94-20.45 89.34-18.85 90.74-17.25 90.74-14.85L90.74-14.85Q90.74-13.85 90.52-12.95 90.29-12.05 90.04-11.2L90.04-11.2Q89.79-10.4 89.62-9.55 89.44-8.7 89.44-7.85L89.44-7.85Q89.44-5 92.14-4L92.14-4Q92.84-3.7 92.84-3.1L92.84-3.1Q92.84-2.65 92.54-1.8 92.24-0.95 91.44-0.23 90.64 0.5 89.09 0.5L89.09 0.5Q87.09 0.5 85.99-0.93 84.89-2.35 84.89-4.55L84.89-4.55Q84.89-5.8 85.17-7.08 85.44-8.35 85.74-9.45L85.74-9.45Q85.94-10.3 86.12-11.13 86.29-11.95 86.29-12.6L86.29-12.6Q86.29-14.9 83.89-14.9L83.89-14.9Q81.84-14.9 80.29-13.38 78.74-11.85 77.64-9.55 76.54-7.25 75.84-4.9L75.84-4.9 75.84-3.7Q75.84-1.85 74.82-0.65 73.79 0.55 72.04 0.55ZM100.24-24.85L100.24-24.85Q98.84-24.9 97.99-25.7 97.14-26.5 97.14-27.95L97.14-27.95Q97.19-29.5 98.19-30.48 99.19-31.45 100.74-31.4L100.74-31.4Q102.19-31.35 103.01-30.55 103.84-29.75 103.79-28.3L103.79-28.3Q103.74-26.8 102.79-25.83 101.84-24.85 100.24-24.85ZM100.29 0.5L100.29 0.5Q98.79 0.5 97.94-0.33 97.09-1.15 97.09-3.15L97.09-3.15Q97.09-4.3 97.31-5.4 97.54-6.5 97.84-7.55L97.84-7.55Q98.19-8.65 98.41-9.8 98.64-10.95 98.64-12.25L98.64-12.25Q98.64-13.15 98.39-13.98 98.14-14.8 97.29-15.2L97.29-15.2Q96.64-15.55 96.16-15.93 95.69-16.3 95.69-16.9L95.69-16.9Q95.69-17.6 96.34-18.4 96.99-19.2 98.06-19.78 99.14-20.35 100.29-20.35L100.29-20.35Q101.54-20.35 102.11-19.7 102.69-19.05 102.89-18.05 103.09-17.05 103.09-16L103.09-16Q103.09-14.4 102.84-12.88 102.59-11.35 102.34-10.05L102.34-10.05Q102.14-9.1 102.04-8.3 101.94-7.5 101.94-6.8L101.94-6.8Q101.94-5.55 102.54-4.93 103.14-4.3 104.24-3.75L104.24-3.75Q104.69-3.5 104.69-3L104.69-3Q104.69-2.6 104.29-1.75 103.89-0.9 102.91-0.2 101.94 0.5 100.29 0.5ZM115.74 0.65L115.74 0.65Q112.69 0.65 111.36-1.38 110.04-3.4 110.04-6.6L110.04-6.6Q110.04-7.75 110.16-8.85 110.29-9.95 110.44-11.05L110.44-11.05Q110.59-12.15 110.74-13.2 110.89-14.25 110.99-15.2L110.99-15.2Q109.94-14.9 108.89-14.9L108.89-14.9Q107.79-14.9 107.79-15.8L107.79-15.8Q107.79-16.75 108.64-18.13 109.49-19.5 110.76-20.85 112.04-22.2 113.31-23.13 114.59-24.05 115.49-24.05L115.49-24.05Q116.59-24.05 116.59-22.15L116.59-22.15Q116.59-21.65 116.51-21.13 116.44-20.6 116.34-20.05L116.34-20.05Q117.29-20.25 118.26-20.4 119.24-20.55 120.14-20.55L120.14-20.55Q121.29-20.55 121.91-20.15 122.54-19.75 122.54-18.6L122.54-18.6Q122.54-17.4 121.96-16.2 121.39-15 120.69-15L120.69-15Q120.54-15 120.19-15.05 119.84-15.1 119.34-15.2L119.34-15.2Q118.69-15.35 117.69-15.5 116.69-15.65 115.29-15.65L115.29-15.65Q114.94-14.1 114.66-12.48 114.39-10.85 114.39-9.55L114.39-9.55Q114.39-6.65 115.84-5.6 117.29-4.55 120.04-4.55L120.04-4.55Q120.89-4.55 121.24-4.28 121.59-4 121.59-3.3L121.59-3.3Q121.59-1.65 119.89-0.5 118.19 0.65 115.74 0.65ZM126.58 13.8L126.58 13.8Q124.53 13.8 123.06 12.7 121.58 11.6 121.58 9.75L121.58 9.75Q121.58 8.3 122.46 7.28 123.33 6.25 124.63 6.25L124.63 6.25Q125.23 6.25 125.48 6.45 125.73 6.65 125.88 6.9L125.88 6.9Q126.28 7.55 126.81 8.03 127.33 8.5 128.23 8.5L128.23 8.5Q129.43 8.5 130.56 7.65 131.68 6.8 132.63 5.7L132.63 5.7Q133.48 4.75 134.68 2.98 135.88 1.2 137.08-1.05L137.08-1.05Q135.98-0.1 135.03 0.33 134.08 0.75 133.23 0.75L133.23 0.75Q132.18 0.75 131.18-0.03 130.18-0.8 129.93-2.95L129.93-2.95Q129.78-4.6 129.36-6.6 128.93-8.6 128.31-10.48 127.68-12.35 126.78-13.65L126.78-13.65Q126.43-14.25 125.98-14.55 125.53-14.85 124.68-14.95L124.68-14.95Q124.08-15 123.91-15.3 123.73-15.6 123.73-16.25L123.73-16.25Q123.73-18.05 124.73-19.15 125.73-20.25 127.43-20.25L127.43-20.25Q129.48-20.25 130.38-18.68 131.28-17.1 131.93-14.85L131.93-14.85Q132.18-13.95 132.46-12.48 132.73-11 132.96-9.3 133.18-7.6 133.28-6.05L133.28-6.05Q133.33-4.95 134.53-4.95L134.53-4.95Q136.13-4.95 137.58-5.95 139.03-6.95 139.96-8.55 140.88-10.15 140.88-11.9L140.88-11.9Q140.88-12.9 140.63-13.7 140.38-14.5 139.78-15.1L139.78-15.1Q139.28-15.7 138.98-16.07 138.68-16.45 138.68-16.95L138.68-16.95Q138.68-17.8 139.48-18.55 140.28-19.3 141.41-19.8 142.53-20.3 143.38-20.3L143.38-20.3Q144.88-20.3 145.38-18.88 145.88-17.45 145.63-15.75L145.63-15.75Q145.33-13.4 144.43-10.2 143.53-7 142.11-3.5 140.68 0 138.86 3.28 137.03 6.55 134.98 9L134.98 9Q133.23 11.15 131.08 12.48 128.93 13.8 126.58 13.8Z" opacity="1" transform="matrix(1,0,0,1,0,0)" fill="#b95ffe" class="slogan-text-1" data-fill-palette-color="secondary" id="text-1"></path></svg></g></svg></g></svg></g></svg></g><g transform="matrix(1,0,0,1,0,1.6574412767312623)"><svg viewBox="0 0 202.87802879999998 90.35549551277236" height="90.35549551277236" width="202.87802879999998"><g><svg xmlns="http://www.w3.org/2000/svg" xmlns:xlink="http://www.w3.org/1999/xlink" version="1.1" x="0" y="0" viewBox="5 29.999914806548247 90 40.08317038690349" enable-background="new 0 0 100 100" xml:space="preserve" height="90.35549551277236" width="202.87802879999998" class="icon-icon-0" data-fill-palette-color="accent" id="icon-0"><path d="M39.213 35.87C31.399 28.056 18.683 28.056 10.87 35.87 7.085 39.654 5 44.688 5 50.041S7.085 60.428 10.87 64.212A19.9 19.9 0 0 0 25.042 70.082 19.9 19.9 0 0 0 39.213 64.212L64.04 39.385 64.176 39.257C70.121 33.312 79.796 33.313 85.741 39.258A15.15 15.15 0 0 1 90.207 50.041C90.207 54.113 88.621 57.944 85.741 60.824A15.15 15.15 0 0 1 74.959 65.289 15.15 15.15 0 0 1 64.178 60.824L58.507 55.171A2.398 2.398 0 1 0 55.115 58.564L61.182 64.607 61.193 64.606A19.9 19.9 0 0 0 74.959 70.083 19.9 19.9 0 0 0 89.13 64.213C92.916 60.428 95 55.395 95 50.041S92.916 39.654 89.13 35.87A19.9 19.9 0 0 0 74.959 30C69.964 30 65.245 31.816 61.607 35.09L61.581 35.066 35.824 60.824A15.16 15.16 0 0 1 25.041 65.289 15.15 15.15 0 0 1 14.258 60.824 15.16 15.16 0 0 1 9.792 50.039C9.792 45.966 11.377 42.136 14.258 39.256 20.204 33.311 29.879 33.312 35.824 39.257L41.537 44.979A2.4 2.4 0 0 0 44.929 44.978 2.397 2.397 0 0 0 44.929 41.587z" fill="#b95ffe" data-fill-palette-color="accent"></path></svg></g></svg></g></svg></g><defs></defs></svg><rect width="395.52" height="60.803798599984376" fill="none" stroke="none" visibility="hidden"></rect></g></svg></g></svg>