<svg xmlns="http://www.w3.org/2000/svg" version="1.1" xmlns:xlink="http://www.w3.org/1999/xlink" xmlns:svgjs="http://svgjs.dev/svgjs" width="164" height="50" viewBox="0 0 2000 373"><g transform="matrix(1,0,0,1,-1.2121212121212466,-2.214901350930404)"><svg viewBox="0 0 396 74" data-background-color="#ffffff" preserveAspectRatio="xMidYMid meet" height="373" width="2000" xmlns="http://www.w3.org/2000/svg" xmlns:xlink="http://www.w3.org/1999/xlink"><g id="tight-bounds" transform="matrix(1,0,0,1,0.2400000000000091,0.43941742618994795)"><svg viewBox="0 0 395.52 73.12116514762008" height="73.12116514762008" width="395.52"><g><svg viewBox="0 0 713.7879059958293 131.96046560147389" height="73.12116514762008" width="395.52"><g><rect width="11.841125344419321" height="131.96046560147389" x="275.429070325705" y="0" fill="#bb61ff" opacity="1" stroke-width="0" stroke="transparent" fill-opacity="1" class="rect-yte-0" data-fill-palette-color="primary" rx="1%" id="yte-0" data-palette-color="#bb61ff"></rect></g><g transform="matrix(1,0,0,1,318.2679059958294,0.3282598646802768)"><svg viewBox="0 0 395.52 131.30394587211333" height="131.30394587211333" width="395.52"><g id="textblocktransform"><svg viewBox="0 0 395.52 131.30394587211333" height="131.30394587211333" width="395.52" id="textblock"><g><svg viewBox="0 0 395.52 131.30394587211333" height="131.30394587211333" width="395.52"><g transform="matrix(1,0,0,1,0,0)"><svg width="395.52" viewBox="2.1911805611129997 -35.86 109.788819438887 36.45" height="131.30394587211333" data-palette-color="#bb61ff"><path d="M13.38 0.59L13.38 0.59Q10.28 0.59 8.24 0.02 6.2-0.54 4.97-1.38 3.74-2.22 3.08-3.05L3.08-3.05Q2.86-3.37 2.69-3.66 2.51-3.96 2.44-4.32L2.44-4.32Q2.34-4.81 2.25-5.6 2.15-6.4 2.22-7.45L2.22-7.45Q2.25-7.89 2.39-8.06L2.39-8.06Q2.56-8.25 2.95-8.35L2.95-8.35Q3.66-8.52 4.8-8.65 5.93-8.79 6.42-8.79L6.42-8.79Q6.93-8.79 7.25-8.59 7.57-8.4 8.01-7.93L8.01-7.93Q8.5-7.42 9.69-6.63 10.89-5.83 13.38-5.83L13.38-5.83Q15.77-5.83 16.99-6.84 18.21-7.84 18.21-9.62L18.21-9.62Q18.21-10.57 17.64-11.41 17.07-12.26 15.55-13.1 14.04-13.94 11.23-14.87L11.23-14.87Q6.59-16.43 4.54-18.75 2.49-21.07 2.49-25.2L2.49-25.2Q2.49-28.61 4.15-30.91 5.81-33.2 8.74-34.38 11.67-35.55 15.5-35.55L15.5-35.55Q18.46-35.55 20.4-34.85 22.34-34.16 23.41-33.29 24.49-32.42 24.8-31.88L24.8-31.88Q25-31.57 25.06-31.41 25.12-31.25 25.15-30.98L25.15-30.98Q25.22-30.22 25.2-29.3 25.17-28.37 25.02-27.2L25.02-27.2Q24.95-26.81 24.76-26.66L24.76-26.66Q24.58-26.54 24.22-26.54L24.22-26.54Q21.85-26.49 20.56-26.78L20.56-26.78Q20.04-26.9 19.87-27.03 19.7-27.15 19.43-27.42L19.43-27.42Q19.04-27.88 18.2-28.5 17.36-29.13 15.5-29.13L15.5-29.13Q12.94-29.13 11.87-27.97 10.79-26.81 10.79-25.37L10.79-25.37Q10.79-23.66 12.38-22.69 13.96-21.73 17.38-20.51L17.38-20.51Q20.24-19.51 22.29-18.33 24.34-17.16 25.43-15.33 26.51-13.5 26.51-10.5L26.51-10.5Q26.51-6.76 24.79-4.3 23.07-1.83 20.1-0.62 17.14 0.59 13.38 0.59ZM55-21.04L55-31.1Q55-31.81 55.25-32.18L55.25-32.18Q56.35-33.79 58.32-35.57L58.32-35.57Q58.69-35.86 58.96-35.86L58.96-35.86Q59.25-35.86 59.57-35.57L59.57-35.57Q60.64-34.64 61.37-33.8 62.11-32.96 62.64-32.18L62.64-32.18Q62.89-31.79 62.89-31.1L62.89-31.1 62.89-1.29Q62.89-0.56 62.58-0.28 62.28 0 61.55 0L61.55 0 56.35 0Q55.61 0 55.31-0.28 55-0.56 55-1.29L55-1.29 55-14.26 40.5-14.26 40.5-1.29Q40.5-0.56 40.2-0.28 39.89 0 39.16 0L39.16 0 33.96 0Q33.23 0 32.92-0.28 32.61-0.56 32.61-1.29L32.61-1.29 32.61-33.72Q32.61-34.45 32.92-34.73 33.23-35.01 33.96-35.01L33.96-35.01 39.16-35.01Q39.89-35.01 40.2-34.73 40.5-34.45 40.5-33.72L40.5-33.72 40.5-21.04 55-21.04ZM78.58-31.1L78.58-1.29Q78.58-0.56 78.28-0.28 77.97 0 77.24 0L77.24 0 72.04 0Q71.31 0 71-0.28 70.7-0.56 70.7-1.29L70.7-1.29 70.7-31.1Q70.7-31.81 70.94-32.18L70.94-32.18Q72.04-33.79 74.02-35.57L74.02-35.57Q74.38-35.86 74.65-35.86L74.65-35.86Q74.95-35.86 75.26-35.57L75.26-35.57Q76.34-34.64 77.07-33.8 77.8-32.96 78.34-32.18L78.34-32.18Q78.58-31.79 78.58-31.1L78.58-31.1ZM99.65-11.69L99.65-11.69Q99.02-11.69 98.58-12.01L98.58-12.01Q98.11-12.33 97.48-12.92 96.84-13.5 96.06-14.36L96.06-14.36Q95.77-14.7 95.77-14.97L95.77-14.97Q95.77-15.23 96.06-15.58L96.06-15.58Q97.58-17.29 98.82-18.09L98.82-18.09Q99.11-18.29 99.65-18.29L99.65-18.29Q101.31-18.29 102.52-19.53 103.73-20.78 103.68-23.56L103.68-23.56Q103.65-26.56 102.2-27.76 100.75-28.96 98.23-28.96L98.23-28.96 97.06-28.96Q95.45-28.96 94.87-28.27 94.28-27.59 94.28-25.93L94.28-25.93 94.28-1.29Q94.28-0.56 93.97-0.28 93.67 0 92.94 0L92.94 0 87.74 0Q87 0 86.7-0.28 86.39-0.56 86.39-1.29L86.39-1.29 86.39-28.47Q86.39-30.91 86.85-32.34 87.3-33.76 88.6-34.39 89.91-35.01 92.42-35.01L92.42-35.01 98.23-35.01Q105.24-35.01 108.61-32.26 111.98-29.52 111.98-23.85L111.98-23.85Q111.98-19.6 110.21-16.92 108.44-14.23 105.62-12.96 102.8-11.69 99.65-11.69Z" opacity="1" transform="matrix(1,0,0,1,0,0)" fill="#bb61ff" class="wordmark-text-0" data-fill-palette-color="primary" id="text-0"></path></svg></g></svg></g></svg></g></svg></g><g transform="matrix(1,0,0,1,0,0.6444475241618335)"><svg viewBox="0 0 244.43135999999998 130.67157055315022" height="130.67157055315022" width="244.43135999999998"><g><svg xmlns="http://www.w3.org/2000/svg" xmlns:xlink="http://www.w3.org/1999/xlink" version="1.1" x="0" y="0" viewBox="5.077777777777778 25.9 90.16185771799441 48.199999999999996" enable-background="new 0 0 100 100" xml:space="preserve" height="130.67157055315022" width="244.43135999999998" class="icon-icon-0" data-fill-palette-color="accent" id="icon-0"><path d="M53.6 42.4C38.4 53.2 23.9 58.6 14.9 61.2 14.1 59.6 13.2 57 12.7 55.2 12.2 53.8 8.9 43.8 12.8 34.7 21.1 34.7 31.6 41.1 35.7 43.9 38.5 42.4 41.3 40.8 44.3 38.9 34.6 32.8 21.6 26.6 9.3 26.6-0.2 49.2 9.3 74.1 9.3 74.1 13.9 74.1 18.5 73.3 23.1 71.9 30.1 69.2 38.5 65.1 47.4 59.2 60.9 50.1 67.8 45.4 74.7 42.5 78 41 81.6 39.7 85 39.3 85.8 39.1 86.6 39 87.5 38.8 87.5 38.9 87.4 39 87.4 39.1H87.5S91.6 50 87.5 59.8C82.2 59.8 76 57.2 71.1 54.6 68.3 55.9 65.4 57.4 62.3 59.3 71 64 81.2 67.9 91 67.9 97.8 51.8 94.9 34.5 92.7 25.9 86.5 26.4 72.2 29.1 53.6 42.4" fill="#59ed9c" data-fill-palette-color="accent"></path></svg></g></svg></g></svg></g><defs></defs></svg><rect width="395.52" height="73.12116514762008" fill="none" stroke="none" visibility="hidden"></rect></g></svg></g></svg>