<svg xmlns="http://www.w3.org/2000/svg" version="1.1" xmlns:xlink="http://www.w3.org/1999/xlink" xmlns:svgjs="http://svgjs.dev/svgjs" width="190" height="100" viewBox="0 0 2000 303"><g transform="matrix(1,0,0,1,-1.2121212121212466,-3.4036369973774185)"><svg viewBox="0 0 396 60" data-background-color="#ffffff" preserveAspectRatio="xMidYMid meet" height="303" width="2000" xmlns="http://www.w3.org/2000/svg" xmlns:xlink="http://www.w3.org/1999/xlink"><g id="tight-bounds" transform="matrix(1,0,0,1,0.2400000000000091,0.673987524233155)"><svg viewBox="0 0 395.52 58.65202495153369" height="58.65202495153369" width="395.52"><g><svg viewBox="0 0 609.312391426261 90.35549551277236" height="58.65202495153369" width="395.52"><g transform="matrix(1,0,0,1,213.79239142626102,2.318546057256313)"><svg viewBox="0 0 395.52 85.71840339825974" height="85.71840339825974" width="395.52"><g id="textblocktransform"><svg viewBox="0 0 395.52 85.71840339825974" height="85.71840339825974" width="395.52" id="textblock"><g><svg viewBox="0 0 395.52 46.23241086032058" height="46.23241086032058" width="395.52"><g transform="matrix(1,0,0,1,0,0)"><svg width="395.52" viewBox="2.05 -38.57 447.77 52.34" height="46.23241086032058" data-palette-color="#3d3839"><path d="M40.67-17.63L40.67-17.63Q40.67-13.38 39.21-9.97 37.74-6.57 35.16-4.2 32.57-1.83 29.03-0.56 25.49 0.71 21.36 0.71L21.36 0.71Q17.24 0.71 13.7-0.56 10.16-1.83 7.57-4.2 4.98-6.57 3.52-9.97 2.05-13.38 2.05-17.63L2.05-17.63Q2.05-21.95 3.5-25.35 4.96-28.76 7.53-31.12 10.11-33.47 13.65-34.73 17.19-35.99 21.36-35.99L21.36-35.99Q25.54-35.99 29.08-34.73 32.62-33.47 35.19-31.12 37.77-28.76 39.22-25.35 40.67-21.95 40.67-17.63ZM30.81-17.63L30.81-17.63Q30.81-19.24 30.66-20.92 30.52-22.61 30.13-24.19 29.74-25.78 29.06-27.17 28.39-28.56 27.34-29.6 26.29-30.64 24.82-31.24 23.34-31.84 21.36-31.84L21.36-31.84Q19.36-31.84 17.87-31.24 16.38-30.64 15.33-29.61 14.28-28.59 13.62-27.2 12.96-25.81 12.59-24.23 12.21-22.66 12.06-20.96 11.91-19.26 11.91-17.63L11.91-17.63Q11.91-16.02 12.06-14.33 12.21-12.65 12.6-11.07 12.99-9.5 13.66-8.11 14.33-6.71 15.38-5.68 16.43-4.64 17.91-4.03 19.38-3.42 21.36-3.42L21.36-3.42Q23.29-3.42 24.73-4.04 26.17-4.66 27.22-5.73 28.27-6.79 28.97-8.19 29.66-9.59 30.07-11.17 30.47-12.74 30.64-14.4 30.81-16.06 30.81-17.63ZM74.34-38.57L74.34 0 71.16 0 67.5-6.13Q66.97-4.59 66.03-3.34 65.09-2.1 63.85-1.21 62.62-0.32 61.14 0.17 59.67 0.66 58.03 0.66L58.03 0.66Q54.81 0.66 52.27-0.49 49.73-1.64 47.97-3.63 46.21-5.62 45.29-8.3 44.36-10.99 44.36-14.06L44.36-14.06Q44.36-17.14 45.29-19.82 46.21-22.51 47.97-24.49 49.73-26.46 52.27-27.61 54.81-28.76 58.03-28.76L58.03-28.76Q60.5-28.76 62.56-27.81 64.62-26.86 66.09-24.83L66.09-24.83 66.09-38.57 74.34-38.57ZM66.04-14.06L66.04-14.06Q66.04-15.04 65.89-16.21 65.74-17.38 65.43-18.58 65.11-19.78 64.6-20.9 64.08-22.02 63.34-22.9 62.6-23.78 61.61-24.3 60.62-24.83 59.35-24.83L59.35-24.83Q57.96-24.83 56.93-24.33 55.91-23.83 55.17-22.99 54.44-22.14 53.96-21.04 53.49-19.95 53.22-18.75 52.95-17.55 52.84-16.35 52.73-15.14 52.73-14.06L52.73-14.06Q52.73-12.99 52.84-11.78 52.95-10.57 53.22-9.38 53.49-8.18 53.96-7.07 54.44-5.96 55.17-5.11 55.91-4.27 56.93-3.77 57.96-3.27 59.35-3.27L59.35-3.27Q60.74-3.27 61.79-3.76 62.84-4.25 63.58-5.09 64.33-5.93 64.8-7.02 65.28-8.11 65.55-9.31 65.82-10.52 65.93-11.74 66.04-12.96 66.04-14.06ZM100.75-28.2L106.46-28.2 96.21-3.39Q94.45 0.85 92.29 5.02 90.13 9.18 87.62 13.01L87.62 13.01 84.39 11.06Q85 9.96 85.83 8.52 86.66 7.08 87.47 5.54 88.28 4 88.96 2.5 89.64 1 90.01-0.24L90.01-0.24 77.68-28.2 85.93-28.2 94.31-9.13 100.75-28.2ZM133.98-9.01L133.98-9.01Q133.98-7.15 133.44-5.71 132.9-4.27 131.97-3.21 131.05-2.15 129.78-1.43 128.51-0.71 127.06-0.27 125.6 0.17 124.02 0.37 122.43 0.56 120.87 0.56L120.87 0.56Q118.77 0.56 117.16 0.29 115.54 0.02 114.08-0.57 112.61-1.17 111.16-2.12 109.71-3.08 107.93-4.44L107.93-4.44 112.74-8.37Q113.4-7.13 114.48-6.12 115.57-5.1 116.74-4.37 117.91-3.64 119.01-3.25 120.11-2.86 120.79-2.86L120.79-2.86Q121.35-2.86 122.06-2.89 122.77-2.93 123.5-3.04 124.24-3.15 124.94-3.37 125.65-3.59 126.2-3.97 126.75-4.35 127.08-4.92 127.41-5.49 127.41-6.3L127.41-6.3Q127.41-7.13 126.98-7.75 126.56-8.37 125.87-8.84 125.19-9.3 124.31-9.62 123.43-9.94 122.54-10.18 121.65-10.42 120.82-10.61 119.99-10.79 119.38-10.96L119.38-10.96Q118.25-11.28 117.01-11.61 115.76-11.94 114.54-12.37 113.32-12.79 112.21-13.38 111.1-13.96 110.26-14.78 109.42-15.6 108.92-16.71 108.42-17.82 108.42-19.31L108.42-19.31Q108.42-22.05 109.5-23.89 110.59-25.73 112.37-26.84 114.15-27.95 116.42-28.42 118.69-28.88 121.04-28.88L121.04-28.88Q122.65-28.88 124.43-28.55 126.21-28.22 127.9-27.58 129.58-26.93 131.05-26 132.51-25.07 133.49-23.88L133.49-23.88 128.68-19.92Q128.14-21.39 127.28-22.44 126.41-23.49 125.4-24.16 124.38-24.83 123.32-25.15 122.26-25.46 121.35-25.46L121.35-25.46Q120.48-25.46 119.38-25.39 118.28-25.32 117.31-24.98 116.35-24.63 115.68-23.94 115.01-23.24 115.01-22.02L115.01-22.02Q115.01-21.14 115.41-20.52 115.81-19.9 116.47-19.45 117.13-18.99 117.97-18.69 118.82-18.38 119.69-18.15 120.57-17.92 121.4-17.75 122.23-17.58 122.89-17.38L122.89-17.38Q124.02-17.07 125.27-16.74 126.53-16.41 127.75-15.98 128.97-15.55 130.11-14.98 131.24-14.4 132.1-13.57 132.95-12.74 133.46-11.63 133.98-10.52 133.98-9.01ZM163.44-9.01L163.44-9.01Q163.44-7.15 162.91-5.71 162.37-4.27 161.44-3.21 160.51-2.15 159.24-1.43 157.97-0.71 156.52-0.27 155.07 0.17 153.48 0.37 151.89 0.56 150.33 0.56L150.33 0.56Q148.23 0.56 146.62 0.29 145.01 0.02 143.54-0.57 142.08-1.17 140.63-2.12 139.17-3.08 137.39-4.44L137.39-4.44 142.2-8.37Q142.86-7.13 143.95-6.12 145.03-5.1 146.21-4.37 147.38-3.64 148.48-3.25 149.57-2.86 150.26-2.86L150.26-2.86Q150.82-2.86 151.53-2.89 152.24-2.93 152.97-3.04 153.7-3.15 154.41-3.37 155.12-3.59 155.67-3.97 156.22-4.35 156.55-4.92 156.87-5.49 156.87-6.3L156.87-6.3Q156.87-7.13 156.45-7.75 156.02-8.37 155.34-8.84 154.65-9.3 153.77-9.62 152.9-9.94 152-10.18 151.11-10.42 150.28-10.61 149.45-10.79 148.84-10.96L148.84-10.96Q147.72-11.28 146.47-11.61 145.23-11.94 144.01-12.37 142.79-12.79 141.68-13.38 140.57-13.96 139.72-14.78 138.88-15.6 138.38-16.71 137.88-17.82 137.88-19.31L137.88-19.31Q137.88-22.05 138.97-23.89 140.05-25.73 141.84-26.84 143.62-27.95 145.89-28.42 148.16-28.88 150.5-28.88L150.5-28.88Q152.11-28.88 153.9-28.55 155.68-28.22 157.36-27.58 159.05-26.93 160.51-26 161.98-25.07 162.95-23.88L162.95-23.88 158.14-19.92Q157.61-21.39 156.74-22.44 155.87-23.49 154.86-24.16 153.85-24.83 152.79-25.15 151.72-25.46 150.82-25.46L150.82-25.46Q149.94-25.46 148.84-25.39 147.74-25.32 146.78-24.98 145.82-24.63 145.14-23.94 144.47-23.24 144.47-22.02L144.47-22.02Q144.47-21.14 144.88-20.52 145.28-19.9 145.94-19.45 146.6-18.99 147.44-18.69 148.28-18.38 149.16-18.15 150.04-17.92 150.87-17.75 151.7-17.58 152.36-17.38L152.36-17.38Q153.48-17.07 154.74-16.74 156-16.41 157.22-15.98 158.44-15.55 159.57-14.98 160.71-14.4 161.56-13.57 162.42-12.74 162.93-11.63 163.44-10.52 163.44-9.01ZM175.43-13.38L175.43-13.38Q176.94-13.04 178.45-12.84 179.97-12.65 181.51-12.65L181.51-12.65Q183.12-12.65 184.5-12.95 185.88-13.26 186.89-13.98 187.9-14.7 188.49-15.89 189.07-17.09 189.07-18.87L189.07-18.87Q189.07-20.31 188.68-21.51 188.29-22.71 187.52-23.56 186.76-24.41 185.63-24.89 184.51-25.37 183.02-25.37L183.02-25.37Q181.63-25.37 180.52-24.85 179.41-24.34 178.56-23.47 177.72-22.61 177.12-21.46 176.53-20.31 176.13-19.07 175.74-17.82 175.57-16.55 175.4-15.28 175.4-14.16L175.4-14.16Q175.4-13.96 175.4-13.77 175.4-13.57 175.43-13.38ZM195.76-18.95L195.76-18.95Q195.76-17.21 195.2-15.86 194.64-14.5 193.68-13.48 192.71-12.45 191.44-11.74 190.17-11.04 188.73-10.58 187.29-10.13 185.77-9.94 184.24-9.74 182.8-9.74L182.8-9.74Q180.97-9.74 179.19-10 177.4-10.25 175.67-10.82L175.67-10.82Q175.94-9.2 176.53-7.75 177.11-6.3 178.09-5.21 179.06-4.13 180.49-3.49 181.92-2.86 183.87-2.86L183.87-2.86Q185.17-2.86 186.34-3.25 187.51-3.64 188.49-4.35 189.47-5.05 190.21-6.03 190.95-7.01 191.42-8.2L191.42-8.2 194.98-6.88Q194.18-4.96 192.77-3.55 191.37-2.15 189.6-1.23 187.83-0.32 185.84 0.12 183.85 0.56 181.9 0.56L181.9 0.56Q178.67 0.56 175.94-0.52 173.21-1.61 171.23-3.56 169.25-5.52 168.13-8.23 167-10.94 167-14.16L167-14.16Q167-17.38 168.13-20.09 169.25-22.8 171.23-24.76 173.21-26.71 175.94-27.8 178.67-28.88 181.9-28.88L181.9-28.88Q183.46-28.88 185.09-28.66 186.73-28.44 188.27-27.97 189.81-27.49 191.17-26.73 192.54-25.98 193.55-24.87 194.57-23.75 195.17-22.29 195.76-20.83 195.76-18.95ZM220.44-28.2L226.16-28.2 215.9-3.39Q214.15 0.85 211.98 5.02 209.82 9.18 207.31 13.01L207.31 13.01 204.09 11.06Q204.7 9.96 205.53 8.52 206.36 7.08 207.16 5.54 207.97 4 208.65 2.5 209.34 1 209.7-0.24L209.7-0.24 197.37-28.2 205.62-28.2 214-9.13 220.44-28.2ZM254.11-35.16L254.11-11.04Q254.11-7.64 253.24-4.14 252.37-0.63 250.82 2.65 249.27 5.93 247.1 8.79 244.93 11.65 242.31 13.77L242.31 13.77 238.55 11.5Q240.02 9.5 241.12 6.96 242.22 4.42 242.95 1.68 243.68-1.05 244.05-3.81 244.41-6.57 244.41-9.06L244.41-9.06 244.41-35.16 254.11-35.16ZM291.14-14.16L291.14-14.16Q291.14-11.96 290.55-10.03 289.97-8.11 288.93-6.47 287.89-4.83 286.43-3.53 284.96-2.22 283.22-1.32 281.47-0.42 279.48 0.07 277.49 0.56 275.39 0.56L275.39 0.56Q273.29 0.56 271.32 0.07 269.34-0.42 267.59-1.32 265.85-2.22 264.38-3.53 262.92-4.83 261.88-6.47 260.84-8.11 260.26-10.05 259.67-11.99 259.67-14.16L259.67-14.16Q259.67-16.33 260.26-18.27 260.84-20.21 261.88-21.85 262.92-23.49 264.38-24.79 265.85-26.1 267.59-27 269.34-27.91 271.32-28.39 273.29-28.88 275.39-28.88L275.39-28.88Q277.49-28.88 279.48-28.39 281.47-27.91 283.22-27 284.96-26.1 286.43-24.79 287.89-23.49 288.93-21.85 289.97-20.21 290.55-18.27 291.14-16.33 291.14-14.16ZM282.74-14.16L282.74-14.16Q282.74-15.33 282.61-16.64 282.47-17.94 282.16-19.2 281.84-20.46 281.29-21.62 280.74-22.78 279.93-23.65 279.13-24.51 278-25.04 276.88-25.56 275.39-25.56L275.39-25.56Q273.98-25.56 272.88-25.02 271.78-24.49 270.96-23.6 270.14-22.71 269.59-21.53 269.04-20.36 268.7-19.1 268.36-17.85 268.21-16.56 268.07-15.28 268.07-14.16L268.07-14.16Q268.07-13.04 268.21-11.76 268.36-10.47 268.7-9.2 269.04-7.93 269.59-6.77 270.14-5.62 270.96-4.72 271.78-3.83 272.88-3.3 273.98-2.76 275.39-2.76L275.39-2.76Q276.86-2.76 277.98-3.28 279.1-3.81 279.92-4.69 280.74-5.57 281.28-6.71 281.81-7.86 282.14-9.13 282.47-10.4 282.61-11.69 282.74-12.99 282.74-14.16ZM294.9-12.06L294.9-12.06Q294.9-13.99 295.23-16.06 295.56-18.14 296.18-20.21 296.8-22.29 297.68-24.32 298.56-26.34 299.66-28.2L299.66-28.2 305.69-28.2Q305.08-26.37 304.6-24.38 304.13-22.39 303.8-20.4 303.47-18.41 303.28-16.5 303.1-14.6 303.1-12.96L303.1-12.96Q303.1-12.01 303.19-10.93 303.27-9.84 303.49-8.75 303.71-7.67 304.11-6.67 304.52-5.66 305.15-4.9 305.79-4.13 306.7-3.67 307.62-3.22 308.86-3.22L308.86-3.22Q310.08-3.22 311.05-3.77 312.01-4.32 312.74-5.21 313.48-6.1 313.99-7.25 314.5-8.4 314.83-9.61 315.16-10.82 315.32-11.98 315.48-13.13 315.48-14.06L315.48-14.06 315.48-28.2 323.73-28.2 323.73 0 320.56 0 316.77-6.57Q316.06-4.93 315.05-3.6 314.04-2.27 312.74-1.32 311.45-0.37 309.87 0.15 308.3 0.66 306.47 0.66L306.47 0.66Q303.54 0.66 301.37-0.29 299.19-1.25 297.75-2.93 296.31-4.61 295.6-6.95 294.9-9.28 294.9-12.06ZM354.59-25.71L354.59-25.71 349.95-18.02Q349.66-18.99 349.19-20.21 348.73-21.44 348.04-22.5 347.36-23.56 346.41-24.28 345.46-25 344.21-25L344.21-25Q343.06-25 342.22-24.41 341.38-23.83 340.79-22.89 340.21-21.95 339.83-20.76 339.45-19.58 339.24-18.37 339.04-17.16 338.96-16.05 338.89-14.94 338.89-14.14L338.89-14.14 338.89 0 330.61 0 330.61-28.2 333.79-28.2 337.13-21.63Q337.81-23.22 338.69-24.55 339.57-25.88 340.72-26.84 341.87-27.81 343.32-28.34 344.77-28.88 346.6-28.88L346.6-28.88Q347.56-28.88 348.73-28.72 349.9-28.56 351.02-28.19 352.15-27.81 353.1-27.2 354.05-26.59 354.59-25.71ZM386.86-16.16L386.86-16.16Q386.86-13.31 386.16-10.21 385.47-7.1 384.22-4.13 382.98-1.15 381.24 1.48 379.51 4.1 377.44 6.01L377.44 6.01 374.34 4.32Q374.99 3.1 375.58 1.59 376.17 0.07 376.64-1.62 377.12-3.32 377.5-5.13 377.88-6.93 378.13-8.7 378.39-10.47 378.52-12.15 378.66-13.82 378.66-15.26L378.66-15.26Q378.66-16.21 378.58-17.3 378.51-18.38 378.28-19.47 378.05-20.56 377.66-21.56 377.26-22.56 376.62-23.32 375.97-24.07 375.06-24.54 374.14-25 372.89-25L372.89-25Q371.67-25 370.72-24.45 369.77-23.9 369.04-23.01 368.3-22.12 367.78-20.97 367.26-19.82 366.93-18.62 366.6-17.41 366.45-16.24 366.3-15.06 366.3-14.14L366.3-14.14 366.3 0 358.03 0 358.03-28.2 361.2-28.2 364.98-21.63Q365.67-23.27 366.69-24.61 367.72-25.95 369.01-26.9 370.31-27.86 371.88-28.37 373.46-28.88 375.29-28.88L375.29-28.88Q378.22-28.88 380.39-27.93 382.56-26.98 384-25.28 385.44-23.58 386.15-21.25 386.86-18.92 386.86-16.16ZM399.09-13.38L399.09-13.38Q400.6-13.04 402.12-12.84 403.63-12.65 405.17-12.65L405.17-12.65Q406.78-12.65 408.16-12.95 409.54-13.26 410.55-13.98 411.56-14.7 412.15-15.89 412.74-17.09 412.74-18.87L412.74-18.87Q412.74-20.31 412.35-21.51 411.95-22.71 411.19-23.56 410.42-24.41 409.29-24.89 408.17-25.37 406.68-25.37L406.68-25.37Q405.29-25.37 404.18-24.85 403.07-24.34 402.23-23.47 401.38-22.61 400.79-21.46 400.19-20.31 399.8-19.07 399.41-17.82 399.24-16.55 399.06-15.28 399.06-14.16L399.06-14.16Q399.06-13.96 399.06-13.77 399.06-13.57 399.09-13.38ZM419.43-18.95L419.43-18.95Q419.43-17.21 418.86-15.86 418.3-14.5 417.34-13.48 416.37-12.45 415.1-11.74 413.83-11.04 412.39-10.58 410.95-10.13 409.43-9.94 407.9-9.74 406.46-9.74L406.46-9.74Q404.63-9.74 402.85-10 401.07-10.25 399.33-10.82L399.33-10.82Q399.6-9.2 400.19-7.75 400.77-6.3 401.75-5.21 402.73-4.13 404.15-3.49 405.58-2.86 407.54-2.86L407.54-2.86Q408.83-2.86 410-3.25 411.17-3.64 412.15-4.35 413.13-5.05 413.87-6.03 414.62-7.01 415.08-8.2L415.08-8.2 418.64-6.88Q417.84-4.96 416.43-3.55 415.03-2.15 413.26-1.23 411.49-0.32 409.5 0.12 407.51 0.56 405.56 0.56L405.56 0.56Q402.34 0.56 399.6-0.52 396.87-1.61 394.89-3.56 392.91-5.52 391.79-8.23 390.67-10.94 390.67-14.16L390.67-14.16Q390.67-17.38 391.79-20.09 392.91-22.8 394.89-24.76 396.87-26.71 399.6-27.8 402.34-28.88 405.56-28.88L405.56-28.88Q407.12-28.88 408.76-28.66 410.39-28.44 411.93-27.97 413.47-27.49 414.84-26.73 416.2-25.98 417.22-24.87 418.23-23.75 418.83-22.29 419.43-20.83 419.43-18.95ZM444.11-28.2L449.82-28.2 439.56-3.39Q437.81 0.85 435.65 5.02 433.49 9.18 430.97 13.01L430.97 13.01 427.75 11.06Q428.36 9.96 429.19 8.52 430.02 7.08 430.82 5.54 431.63 4 432.31 2.5 433 1 433.36-0.24L433.36-0.24 421.03-28.2 429.29-28.2 437.66-9.13 444.11-28.2Z" opacity="1" transform="matrix(1,0,0,1,0,0)" fill="#3d3839" class="wordmark-text-0" data-fill-palette-color="primary" id="text-0"></path></svg></g></svg></g><g transform="matrix(1,0,0,1,0,57.14677348658162)"><svg viewBox="0 0 99.00401992651254 28.571629911678116" height="28.571629911678116" width="99.00401992651254"><g transform="matrix(1,0,0,1,0,0)"><svg width="99.00401992651254" viewBox="4.5 -33.5 148.98 43" height="28.571629911678116" data-palette-color="#29ef00"><path d="M4.5-1.6L4.5-18.15 8.55-18.15 8.55-0.1Q8.3 0 7.8 0.13 7.3 0.25 6.7 0.25L6.7 0.25Q5.6 0.25 5.05-0.2 4.5-0.65 4.5-1.6L4.5-1.6ZM8.55-28.8L8.55-14.8 4.5-14.8 4.5-30.3Q4.75-30.4 5.28-30.53 5.8-30.65 6.4-30.65L6.4-30.65Q7.5-30.65 8.03-30.23 8.55-29.8 8.55-28.8L8.55-28.8ZM36.85-15.25L36.85-15.25 36.85-10.15 32.85-10.15 32.85-15.05Q32.85-17.85 31.27-19.15 29.7-20.45 27.05-20.45L27.05-20.45Q25.05-20.45 23.5-19.95 21.95-19.45 20.85-18.8L20.85-18.8 20.85-10.15 16.85-10.15 16.85-18.6Q16.85-19.65 17.27-20.33 17.7-21 18.75-21.65L18.75-21.65Q20.05-22.4 22.2-23.08 24.35-23.75 27.05-23.75L27.05-23.75Q31.6-23.75 34.22-21.68 36.85-19.6 36.85-15.25ZM16.85-1.55L16.85-12.9 20.85-12.9 20.85-0.1Q20.6 0 20.1 0.13 19.6 0.25 19 0.25L19 0.25Q17.95 0.25 17.4-0.18 16.85-0.6 16.85-1.55L16.85-1.55ZM32.85-1.55L32.85-12.9 36.85-12.9 36.85-0.1Q36.6 0 36.07 0.13 35.55 0.25 35 0.25L35 0.25Q33.9 0.25 33.37-0.18 32.85-0.6 32.85-1.55L32.85-1.55ZM57.2-18.55L47.7-18.55 47.7-21.8 58.3-21.8Q58.45-21.6 58.6-21.18 58.75-20.75 58.75-20.2L58.75-20.2Q58.75-19.4 58.35-18.98 57.95-18.55 57.2-18.55L57.2-18.55ZM48.4-24.95L48.4-24.95 48.4-19.1 44.45-19.1 44.45-25.15Q44.45-28.1 45.52-29.93 46.6-31.75 48.62-32.63 50.65-33.5 53.45-33.5L53.45-33.5Q56.3-33.5 57.92-32.75 59.55-32 59.55-30.9L59.55-30.9Q59.55-30.35 59.32-29.9 59.1-29.45 58.7-29.05L58.7-29.05Q57.8-29.55 56.45-29.88 55.1-30.2 53.85-30.2L53.85-30.2Q50.8-30.2 49.6-28.95 48.4-27.7 48.4-24.95ZM44.45-1.55L44.45-21.3 48.45-21.3 48.45-0.1Q48.2 0 47.7 0.13 47.2 0.25 46.6 0.25L46.6 0.25Q45.55 0.25 45-0.18 44.45-0.6 44.45-1.55L44.45-1.55ZM63.94-30.4L63.94-30.4Q63.94-31.45 64.69-32.18 65.44-32.9 66.54-32.9L66.54-32.9Q67.69-32.9 68.39-32.18 69.09-31.45 69.09-30.4L69.09-30.4Q69.09-29.35 68.39-28.63 67.69-27.9 66.54-27.9L66.54-27.9Q65.44-27.9 64.69-28.63 63.94-29.35 63.94-30.4ZM64.54-1.55L64.54-13.2 68.54-13.2 68.54-0.1Q68.29 0 67.79 0.13 67.29 0.25 66.69 0.25L66.69 0.25Q65.64 0.25 65.09-0.18 64.54-0.6 64.54-1.55L64.54-1.55ZM68.54-21.5L68.54-11.25 64.54-11.25 64.54-23Q64.79-23.1 65.32-23.23 65.84-23.35 66.44-23.35L66.44-23.35Q67.49-23.35 68.02-22.93 68.54-22.5 68.54-21.5L68.54-21.5ZM96.34-15.25L96.34-15.25 96.34-10.15 92.34-10.15 92.34-15.05Q92.34-17.85 90.77-19.15 89.19-20.45 86.54-20.45L86.54-20.45Q84.54-20.45 82.99-19.95 81.44-19.45 80.34-18.8L80.34-18.8 80.34-10.15 76.34-10.15 76.34-18.6Q76.34-19.65 76.77-20.33 77.19-21 78.24-21.65L78.24-21.65Q79.54-22.4 81.69-23.08 83.84-23.75 86.54-23.75L86.54-23.75Q91.09-23.75 93.72-21.68 96.34-19.6 96.34-15.25ZM76.34-1.55L76.34-12.9 80.34-12.9 80.34-0.1Q80.09 0 79.59 0.13 79.09 0.25 78.49 0.25L78.49 0.25Q77.44 0.25 76.89-0.18 76.34-0.6 76.34-1.55L76.34-1.55ZM92.34-1.55L92.34-12.9 96.34-12.9 96.34-0.1Q96.09 0 95.57 0.13 95.04 0.25 94.49 0.25L94.49 0.25Q93.39 0.25 92.87-0.18 92.34-0.6 92.34-1.55L92.34-1.55ZM103.49-30.4L103.49-30.4Q103.49-31.45 104.24-32.18 104.99-32.9 106.09-32.9L106.09-32.9Q107.24-32.9 107.94-32.18 108.64-31.45 108.64-30.4L108.64-30.4Q108.64-29.35 107.94-28.63 107.24-27.9 106.09-27.9L106.09-27.9Q104.99-27.9 104.24-28.63 103.49-29.35 103.49-30.4ZM104.09-1.55L104.09-13.2 108.09-13.2 108.09-0.1Q107.84 0 107.34 0.13 106.84 0.25 106.24 0.25L106.24 0.25Q105.19 0.25 104.64-0.18 104.09-0.6 104.09-1.55L104.09-1.55ZM108.09-21.5L108.09-11.25 104.09-11.25 104.09-23Q104.34-23.1 104.86-23.23 105.39-23.35 105.99-23.35L105.99-23.35Q107.04-23.35 107.56-22.93 108.09-22.5 108.09-21.5L108.09-21.5ZM115.94-6.05L115.94-13.2 119.94-13.2 119.94-6.3Q119.94-4.3 121.09-3.48 122.24-2.65 124.24-2.65L124.24-2.65Q125.09-2.65 126.14-2.95 127.19-3.25 127.89-3.65L127.89-3.65Q128.19-3.35 128.44-2.9 128.69-2.45 128.69-1.85L128.69-1.85Q128.69-0.75 127.39-0.05 126.09 0.65 123.79 0.65L123.79 0.65Q120.29 0.65 118.11-0.9 115.94-2.45 115.94-6.05L115.94-6.05ZM127.09-19.3L117.99-19.3 117.99-22.6 128.14-22.6Q128.29-22.4 128.44-21.95 128.59-21.5 128.59-21L128.59-21Q128.59-20.2 128.19-19.75 127.79-19.3 127.09-19.3L127.09-19.3ZM119.94-28.35L119.94-11.7 115.94-11.7 115.94-29.8Q116.19-29.9 116.71-30.03 117.24-30.15 117.84-30.15L117.84-30.15Q118.89-30.15 119.41-29.73 119.94-29.3 119.94-28.35L119.94-28.35ZM139.18-5.15L139.18-5.15Q138.33-6.75 137.13-9.47 135.93-12.2 134.66-15.58 133.38-18.95 132.23-22.45L132.23-22.45Q132.58-22.95 133.16-23.25 133.73-23.55 134.38-23.55L134.38-23.55Q135.23-23.55 135.78-23.1 136.33-22.65 136.68-21.6L136.68-21.6Q138.18-17.4 139.83-13.25 141.48-9.1 143.48-4.65L143.48-4.65 143.68-4.65Q144.73-6.75 145.88-9.9 147.03-13.05 148.08-16.55 149.13-20.05 149.83-23.15L149.83-23.15Q150.18-23.3 150.61-23.43 151.03-23.55 151.53-23.55L151.53-23.55Q152.38-23.55 152.93-23.13 153.48-22.7 153.48-21.85L153.48-21.85Q153.48-21.05 153.03-19.18 152.58-17.3 151.81-14.83 151.03-12.35 150.01-9.58 148.98-6.8 147.81-4.13 146.63-1.45 145.43 0.7L145.43 0.7Q143.13 4.95 141.23 7.23 139.33 9.5 137.73 9.5L137.73 9.5Q136.58 9.5 135.96 8.9 135.33 8.3 135.18 7.5L135.18 7.5Q136.28 6.55 137.66 4.98 139.03 3.4 140.31 1.58 141.58-0.25 142.38-1.9L142.38-1.9Q141.53-2.15 140.81-2.8 140.08-3.45 139.18-5.15Z" opacity="1" transform="matrix(1,0,0,1,0,0)" fill="#29ef00" class="slogan-text-1" data-fill-palette-color="secondary" id="text-1"></path></svg></g></svg></g></svg></g></svg></g><g><svg viewBox="0 0 202.87802879999998 90.35549551277236" height="90.35549551277236" width="202.87802879999998"><g><svg xmlns="http://www.w3.org/2000/svg" xmlns:xlink="http://www.w3.org/1999/xlink" version="1.1" x="0" y="0" viewBox="5 29.999914806548247 90 40.08317038690349" enable-background="new 0 0 100 100" xml:space="preserve" height="90.35549551277236" width="202.87802879999998" class="icon-icon-0" data-fill-palette-color="accent" id="icon-0"><path d="M39.213 35.87C31.399 28.056 18.683 28.056 10.87 35.87 7.085 39.654 5 44.688 5 50.041S7.085 60.428 10.87 64.212A19.9 19.9 0 0 0 25.042 70.082 19.9 19.9 0 0 0 39.213 64.212L64.04 39.385 64.176 39.257C70.121 33.312 79.796 33.313 85.741 39.258A15.15 15.15 0 0 1 90.207 50.041C90.207 54.113 88.621 57.944 85.741 60.824A15.15 15.15 0 0 1 74.959 65.289 15.15 15.15 0 0 1 64.178 60.824L58.507 55.171A2.398 2.398 0 1 0 55.115 58.564L61.182 64.607 61.193 64.606A19.9 19.9 0 0 0 74.959 70.083 19.9 19.9 0 0 0 89.13 64.213C92.916 60.428 95 55.395 95 50.041S92.916 39.654 89.13 35.87A19.9 19.9 0 0 0 74.959 30C69.964 30 65.245 31.816 61.607 35.09L61.581 35.066 35.824 60.824A15.16 15.16 0 0 1 25.041 65.289 15.15 15.15 0 0 1 14.258 60.824 15.16 15.16 0 0 1 9.792 50.039C9.792 45.966 11.377 42.136 14.258 39.256 20.204 33.311 29.879 33.312 35.824 39.257L41.537 44.979A2.4 2.4 0 0 0 44.929 44.978 2.397 2.397 0 0 0 44.929 41.587z" fill="#b95ffe" data-fill-palette-color="accent"></path></svg></g></svg></g></svg></g><defs></defs></svg><rect width="395.52" height="58.65202495153369" fill="none" stroke="none" visibility="hidden"></rect></g></svg></g></svg>